<svg xmlns="http://www.w3.org/2000/svg" viewBox="0 0 1200 630">
  <defs>
    <linearGradient id="bg" x1="0" y1="0" x2="1" y2="1">
      <stop offset="0%" stop-color="#0f1b3d"/>
      <stop offset="100%" stop-color="#1e3a5f"/>
    </linearGradient>
    <radialGradient id="glow" cx="50%" cy="50%" r="60%">
      <stop offset="0%" stop-color="#3b6fa0" stop-opacity="0.25"/>
      <stop offset="100%" stop-color="#0f1b3d" stop-opacity="0"/>
    </radialGradient>
  </defs>
  <rect width="1200" height="630" fill="url(#bg)"/>
  <rect width="1200" height="630" fill="url(#glow)"/>

  <!-- Centered lockup -->
  <g transform="translate(283 235)">
    <!-- Mark -->
    <g transform="scale(1.25)">
      <rect x="0" y="0" width="128" height="128" rx="26" fill="#e8edf3"/>
      <path d="M88 40 a30 30 0 1 0 0 48" fill="none" stroke="#0f1b3d" stroke-width="10" stroke-linecap="round"/>
      <path d="M48 86 L62 46 L76 86" fill="none" stroke="#1e3a5f" stroke-width="10" stroke-linejoin="round" stroke-linecap="round"/>
      <line x1="53" y1="72" x2="71" y2="72" stroke="#1e3a5f" stroke-width="8" stroke-linecap="round"/>
    </g>
    <!-- Wordmark -->
    <g transform="translate(190 130)" fill="#e8edf3"><path transform="translate(0.000 0) scale(0.08600 -0.08600)" d="M257 -10Q190 -10 137.5 23.0Q85 56 54.5 113.0Q24 170 24 243Q24 316 54.5 373.0Q85 430 137.5 463.0Q190 496 257 496Q306 496 345.5 477.0Q385 458 410.0 424.5Q435 391 438 348V138Q435 95 410.5 61.5Q386 28 346.0 9.0Q306 -10 257 -10ZM288 128Q337 128 367.0 160.5Q397 193 397 243Q397 277 383.5 303.0Q370 329 345.5 343.5Q321 358 289 358Q257 358 232.5 343.5Q208 329 193.5 303.0Q179 277 179 243Q179 210 193.0 184.0Q207 158 232.0 143.0Q257 128 288 128ZM391 0V131L414 249L391 367V486H541V0Z"/><path transform="translate(51.170 0) scale(0.08600 -0.08600)" d="M261 -10Q192 -10 138.5 23.0Q85 56 54.5 113.0Q24 170 24 243Q24 316 54.5 373.0Q85 430 138.5 463.0Q192 496 261 496Q311 496 351.5 477.0Q392 458 418.5 424.5Q445 391 448 348V143Q445 100 419.0 65.5Q393 31 352.0 10.5Q311 -10 261 -10ZM288 128Q321 128 345.0 142.5Q369 157 383.0 183.0Q397 209 397 243Q397 277 383.5 302.5Q370 328 345.5 343.0Q321 358 289 358Q257 358 232.5 343.0Q208 328 193.5 302.0Q179 276 179 243Q179 210 193.0 184.0Q207 158 232.0 143.0Q257 128 288 128ZM541 0H391V131L414 249L388 367V726H541Z"/><path transform="translate(102.340 0) scale(0.08600 -0.08600)" d="M294 -11Q215 -11 153.5 21.5Q92 54 57.0 112.0Q22 170 22 243Q22 316 56.5 373.5Q91 431 150.0 464.0Q209 497 283 497Q355 497 410.0 466.0Q465 435 496.5 380.0Q528 325 528 254Q528 241 526.5 226.5Q525 212 521 193L102 192V297L456 298L390 254Q389 296 377.0 323.5Q365 351 341.5 365.5Q318 380 284 380Q248 380 221.5 363.5Q195 347 180.5 317.0Q166 287 166 244Q166 201 181.5 170.5Q197 140 225.5 123.5Q254 107 293 107Q329 107 358.0 119.5Q387 132 409 157L493 73Q457 31 406.0 10.0Q355 -11 294 -11Z"/><path transform="translate(149.468 0) scale(0.08600 -0.08600)" d="M54 0V486H207V0ZM365 0V284Q365 321 342.5 341.5Q320 362 287 362Q264 362 246.0 352.5Q228 343 217.5 326.0Q207 309 207 284L148 310Q148 368 173.0 409.5Q198 451 241.0 473.5Q284 496 338 496Q389 496 429.5 473.0Q470 450 494.0 409.0Q518 368 518 311V0ZM676 0V284Q676 321 653.5 341.5Q631 362 598 362Q575 362 557.0 352.5Q539 343 528.5 326.0Q518 309 518 284L430 296Q432 358 459.5 402.5Q487 447 532.5 471.5Q578 496 635 496Q691 496 734.5 472.5Q778 449 803.5 405.5Q829 362 829 301V0Z"/><path transform="translate(224.546 0) scale(0.08600 -0.08600)" d="M54 0V486H207V0ZM131 553Q95 553 71.5 577.5Q48 602 48 637Q48 673 71.5 697.0Q95 721 131 721Q167 721 190.0 697.0Q213 673 213 637Q213 602 190.0 577.5Q167 553 131 553Z"/><path transform="translate(246.992 0) scale(0.08600 -0.08600)" d="M289 -11Q214 -11 153.0 22.0Q92 55 57.0 113.0Q22 171 22 243Q22 316 57.5 373.5Q93 431 154.0 464.0Q215 497 291 497Q348 497 395.5 477.5Q443 458 480 419L382 321Q365 340 342.5 349.0Q320 358 291 358Q258 358 232.5 343.5Q207 329 192.5 303.5Q178 278 178 244Q178 210 192.5 184.0Q207 158 233.0 143.0Q259 128 291 128Q321 128 344.5 138.5Q368 149 385 168L482 70Q444 30 396.0 9.5Q348 -11 289 -11Z"/></g>
    <g transform="translate(483.65 130)" fill="#3b6fa0"><path transform="translate(0.000 0) scale(0.08600 -0.08600)" d="M68 0V706H225V0ZM505 0V706H663V0ZM162 295V431H557V295Z"/><path transform="translate(62.780 0) scale(0.08600 -0.08600)" d="M270 -11Q203 -11 151.5 16.5Q100 44 71.0 92.5Q42 141 42 204V486H195V206Q195 181 203.5 163.0Q212 145 229.0 135.0Q246 125 270 125Q304 125 324.0 146.5Q344 168 344 206V486H497V205Q497 141 468.0 92.5Q439 44 388.0 16.5Q337 -11 270 -11Z"/><path transform="translate(109.134 0) scale(0.08600 -0.08600)" d="M334 -10Q285 -10 244.0 10.5Q203 31 177.0 65.5Q151 100 147 143V348Q151 391 177.0 424.5Q203 458 244.0 477.0Q285 496 334 496Q403 496 456.5 463.0Q510 430 540.5 373.0Q571 316 571 243Q571 170 540.5 113.0Q510 56 456.5 23.0Q403 -10 334 -10ZM54 0V726H207V367L182 249L205 131V0ZM307 128Q339 128 363.5 143.0Q388 158 402.0 184.0Q416 210 416 243Q416 277 402.0 303.0Q388 329 363.5 343.5Q339 358 307 358Q275 358 250.0 343.5Q225 329 211.5 303.0Q198 277 198 243Q198 209 212.0 183.0Q226 157 250.5 142.5Q275 128 307 128Z"/></g>
  </g>

  <!-- Tagline -->
  <g transform="translate(600 470)" text-anchor="middle">
    <text font-family="serif" font-size="24" fill="#c7d3e3" letter-spacing="6">ACADEMIC EXCELLENCE · SCHOLARLY WRITING</text>
  </g>
</svg>
